<svg width="34" height="31" viewBox="0 0 34 31" fill="none" xmlns="http://www.w3.org/2000/svg">
<rect x="12" y="10" width="10" height="19" fill="white"/>
<path d="M0.240782 28.1333L15.2736 1.01127C15.4429 0.705205 15.6925 0.449787 15.9963 0.271844C16.3001 0.0939018 16.6468 0 17 0C17.3532 0 17.6999 0.0939018 18.0037 0.271844C18.3075 0.449787 18.5571 0.705205 18.7264 1.01127L33.7592 28.1333C33.9229 28.4287 34.0058 28.7611 33.9997 29.0977C33.9936 29.4344 33.8987 29.7636 33.7244 30.053C33.5502 30.3424 33.3025 30.5819 33.0058 30.748C32.7092 30.9141 32.3738 31.0009 32.0328 31H1.96719C1.62618 31.0009 1.29081 30.9141 0.994169 30.748C0.697525 30.5819 0.449849 30.3424 0.275566 30.053C0.101283 29.7636 0.00641373 29.4344 0.000313943 29.0977C-0.00578584 28.7611 0.077095 28.4287 0.240782 28.1333V28.1333ZM19.0926 18.082L20.1468 11.8374C20.1779 11.6525 20.1679 11.4631 20.1174 11.2824C20.067 11.1017 19.9773 10.934 19.8546 10.791C19.7318 10.648 19.5791 10.533 19.4068 10.4542C19.2346 10.3753 19.047 10.3344 18.8572 10.3343H15.1428C14.953 10.3344 14.7654 10.3753 14.5932 10.4542C14.4209 10.533 14.2682 10.648 14.1454 10.791C14.0227 10.934 13.933 11.1017 13.8826 11.2824C13.8321 11.4631 13.8221 11.6525 13.8532 11.8374L14.9074 18.082H19.0926ZM19.8773 22.9889C19.8773 22.2355 19.5742 21.5129 19.0346 20.9801C18.495 20.4474 17.7631 20.1481 17 20.1481C16.2369 20.1481 15.505 20.4474 14.9654 20.9801C14.4258 21.5129 14.1227 22.2355 14.1227 22.9889C14.1227 23.7423 14.4258 24.4649 14.9654 24.9976C15.505 25.5304 16.2369 25.8297 17 25.8297C17.7631 25.8297 18.495 25.5304 19.0346 24.9976C19.5742 24.4649 19.8773 23.7423 19.8773 22.9889Z" fill="#FFC700"/>
</svg>
